<svg xmlns="http://www.w3.org/2000/svg" width="860" height="430" viewBox="0 0 860 430" font-family="ui-sans-serif,-apple-system,Segoe UI,Helvetica,Arial,sans-serif">
<rect width="860" height="430" rx="14" fill="#ffffff"/>
<rect x="20" y="20" width="820" height="76" rx="10" fill="#f6f8fa" stroke="#d0d7de"/>
<circle cx="60" cy="58" r="22" fill="#eaeef2" stroke="#d0d7de"/>
<text x="60" y="65" text-anchor="middle" font-size="20" font-weight="700" fill="#1a7f37">M</text>
<text x="96" y="50" font-size="19" font-weight="700" fill="#1f2328">Matías Olivieri</text>
<text x="96" y="72" font-size="12.5" fill="#636c76">@0ikawaa · Web Developer · Uruguay</text>
<rect x="672" y="42" width="148" height="30" rx="8" fill="#eaeef2" stroke="#d0d7de"/>
<text x="746" y="62" text-anchor="middle" font-size="12" font-weight="600" fill="#1f2328">MA Importaciones</text>
<rect x="20.0" y="110" width="187.5" height="78" rx="10" fill="#f6f8fa" stroke="#d0d7de"/>
<text x="113.75" y="146" text-anchor="middle" font-size="26" font-weight="700" fill="#1f2328">4</text>
<text x="113.75" y="168" text-anchor="middle" font-size="9" letter-spacing="0.9" fill="#636c76">SISTEMAS EN PRODUCCIÓN</text>
<rect x="227.5" y="110" width="187.5" height="78" rx="10" fill="#f6f8fa" stroke="#d0d7de"/>
<text x="321.25" y="146" text-anchor="middle" font-size="26" font-weight="700" fill="#1f2328">4.6</text>
<text x="321.25" y="168" text-anchor="middle" font-size="9" letter-spacing="0.9" fill="#636c76">AÑOS CONSTRUYENDO</text>
<rect x="435.0" y="110" width="187.5" height="78" rx="10" fill="#f6f8fa" stroke="#d0d7de"/>
<text x="528.75" y="146" text-anchor="middle" font-size="26" font-weight="700" fill="#1f2328">TS</text>
<text x="528.75" y="168" text-anchor="middle" font-size="9" letter-spacing="0.9" fill="#636c76">STACK PRINCIPAL</text>
<rect x="642.5" y="110" width="187.5" height="78" rx="10" fill="#f6f8fa" stroke="#d0d7de"/>
<text x="736.25" y="146" text-anchor="middle" font-size="26" font-weight="700" fill="#1f2328">4</text>
<text x="736.25" y="168" text-anchor="middle" font-size="9" letter-spacing="0.9" fill="#636c76">INTEGRACIONES</text>
<rect x="20" y="202" width="530" height="208" rx="10" fill="#f6f8fa" stroke="#d0d7de"/>
<text x="42" y="226" font-size="10" letter-spacing="1.1" fill="#636c76">STACK</text>
<rect x="42" y="238" width="88" height="24" rx="12" fill="#eaeef2" stroke="#d0d7de"/>
<text x="86" y="254" text-anchor="middle" font-size="11" fill="#1f2328">TypeScript</text>
<rect x="138.0" y="238" width="55" height="24" rx="12" fill="#eaeef2" stroke="#d0d7de"/>
<text x="166" y="254" text-anchor="middle" font-size="11" fill="#1f2328">React</text>
<rect x="201.0" y="238" width="68" height="24" rx="12" fill="#eaeef2" stroke="#d0d7de"/>
<text x="235" y="254" text-anchor="middle" font-size="11" fill="#1f2328">Next.js</text>
<rect x="277.2" y="238" width="75" height="24" rx="12" fill="#eaeef2" stroke="#d0d7de"/>
<text x="315" y="254" text-anchor="middle" font-size="11" fill="#1f2328">Tailwind</text>
<rect x="360.0" y="238" width="62" height="24" rx="12" fill="#eaeef2" stroke="#d0d7de"/>
<text x="391" y="254" text-anchor="middle" font-size="11" fill="#1f2328">Prisma</text>
<rect x="429.6" y="238" width="88" height="24" rx="12" fill="#eaeef2" stroke="#d0d7de"/>
<text x="474" y="254" text-anchor="middle" font-size="11" fill="#1f2328">PostgreSQL</text>
<rect x="42" y="270" width="75" height="24" rx="12" fill="#eaeef2" stroke="#d0d7de"/>
<text x="79" y="286" text-anchor="middle" font-size="11" fill="#1f2328">three.js</text>
<rect x="124.8" y="270" width="62" height="24" rx="12" fill="#eaeef2" stroke="#d0d7de"/>
<text x="156" y="286" text-anchor="middle" font-size="11" fill="#1f2328">Vercel</text>
<rect x="194.39999999999998" y="270" width="134" height="24" rx="12" fill="#eaeef2" stroke="#d0d7de"/>
<text x="262" y="286" text-anchor="middle" font-size="11" fill="#1f2328">Mercado Libre API</text>
<rect x="336.59999999999997" y="270" width="48" height="24" rx="12" fill="#eaeef2" stroke="#d0d7de"/>
<text x="361" y="286" text-anchor="middle" font-size="11" fill="#1f2328">Odoo</text>
<rect x="392.99999999999994" y="270" width="68" height="24" rx="12" fill="#eaeef2" stroke="#d0d7de"/>
<text x="427" y="286" text-anchor="middle" font-size="11" fill="#1f2328">Shopify</text>
<rect x="566" y="202" width="274" height="208" rx="10" fill="#f6f8fa" stroke="#d0d7de"/>
<path d="M 640.00 244.00 A 46 46 0 1 1 626.89 334.09" fill="none" stroke="#3178c6" stroke-width="15"/>
<path d="M 626.89 334.09 A 46 46 0 0 1 597.12 306.66" fill="none" stroke="#f1e05a" stroke-width="15"/>
<path d="M 597.12 306.66 A 46 46 0 0 1 599.28 268.60" fill="none" stroke="#663399" stroke-width="15"/>
<path d="M 599.28 268.60 A 46 46 0 0 1 618.86 249.15" fill="none" stroke="#e34c26" stroke-width="15"/>
<path d="M 618.86 249.15 A 46 46 0 0 1 631.38 244.81" fill="none" stroke="#4F5D95" stroke-width="15"/>
<path d="M 631.38 244.81 A 46 46 0 0 1 640.00 244.00" fill="none" stroke="#8b949e" stroke-width="15"/>
<circle cx="640" cy="290" r="37.5" fill="#f6f8fa"/>
<text x="640" y="288" text-anchor="middle" font-size="19" font-weight="700" fill="#1f2328">54.6%</text>
<text x="640" y="306" text-anchor="middle" font-size="10.5" fill="#636c76">TypeScript</text>
<circle cx="716" cy="234" r="4.5" fill="#3178c6"/>
<text x="730" y="238" font-size="11.5" fill="#1f2328">TypeScript</text>
<text x="822" y="238" text-anchor="end" font-size="11.5" fill="#636c76">54.6%</text>
<circle cx="716" cy="261" r="4.5" fill="#f1e05a"/>
<text x="730" y="265" font-size="11.5" fill="#1f2328">JavaScript</text>
<text x="822" y="265" text-anchor="end" font-size="11.5" fill="#636c76">14.5%</text>
<circle cx="716" cy="288" r="4.5" fill="#663399"/>
<text x="730" y="292" font-size="11.5" fill="#1f2328">CSS</text>
<text x="822" y="292" text-anchor="end" font-size="11.5" fill="#636c76">13.6%</text>
<circle cx="716" cy="315" r="4.5" fill="#e34c26"/>
<text x="730" y="319" font-size="11.5" fill="#1f2328">HTML</text>
<text x="822" y="319" text-anchor="end" font-size="11.5" fill="#636c76">9.7%</text>
<circle cx="716" cy="342" r="4.5" fill="#4F5D95"/>
<text x="730" y="346" font-size="11.5" fill="#1f2328">PHP</text>
<text x="822" y="346" text-anchor="end" font-size="11.5" fill="#636c76">4.6%</text>
<circle cx="716" cy="369" r="4.5" fill="#8b949e"/>
<text x="730" y="373" font-size="11.5" fill="#1f2328">Otros</text>
<text x="822" y="373" text-anchor="end" font-size="11.5" fill="#636c76">3.0%</text>
<text x="640" y="392" text-anchor="middle" font-size="9" fill="#636c76">sin repos de game servers</text>
<line x1="42" y1="316" x2="528" y2="316" stroke="#d0d7de"/>
<text x="42" y="340" font-size="10" letter-spacing="1.1" fill="#636c76">QUE CONSTRUYO</text>
<circle cx="46" cy="357" r="2.5" fill="#1a7f37"/>
<text x="58" y="361" font-size="11.5" fill="#1f2328">Fichas de producto con visor 3D y realidad aumentada</text>
<circle cx="46" cy="378" r="2.5" fill="#1a7f37"/>
<text x="58" y="382" font-size="11.5" fill="#1f2328">Paneles internos: importaciones, stock, precios y rentabilidad</text>
<circle cx="46" cy="399" r="2.5" fill="#1a7f37"/>
<text x="58" y="403" font-size="11.5" fill="#1f2328">Integraciones Mercado Libre &lt;-&gt; Odoo &lt;-&gt; Shopify</text>
</svg>